<svg xmlns="http://www.w3.org/2000/svg" width="0" height="0" aria-hidden="true">
  <defs>
    <!-- Organic blob (objectBoundingBox): left arc, top valley + humps, right waist, shallow bottom. -->
    <clipPath id="humanControlBlob" clipPathUnits="objectBoundingBox">
      <path
        d="M0.04 0.52
        C0.01 0.35 0.02 0.14 0.11 0.08
        C0.2 0.02 0.32 0.02 0.41 0.07
        C0.45 0.1 0.47 0.16 0.5 0.11
        C0.51 0.09 0.53 0.1 0.55 0.08
        C0.58 0.05 0.6 0.1 0.64 0.08
        C0.7 0.04 0.78 0.1 0.86 0.18
        C0.95 0.3 0.99 0.45 0.98 0.6
        C0.95 0.75 0.86 0.9 0.7 0.95
        C0.5 0.99 0.3 0.95 0.16 0.84
        C0.04 0.72 0.02 0.58 0.04 0.52Z"
      />
    </clipPath>
  </defs>
</svg>
